:SAMPLES-PER-SECOND 30
:FULLY-SPECIFIED
:DEGREES
569
root  12.5824 40.5762 8.33899 161.654 79.4507 161.139
RightUpLeg  -5.71054 -15.6342 -10.2218
RightLeg  12.3286 -13.1697 0.275581
RightFoot  -1.47124 -0.123892 1.17442
RightToes  0.000481921 0.542163 -0.142578
Spine  16.3694 -0.57869 0.102363
Spine1  -5.58459 -0.657705 0.659702
HEad  13.7535 -3.96721 2.76894
LeftShoulder1  4.35074 -5.80661 -40.3824
LeftArm  -10.652 38.1821 -37.1738
LeftForeArm  179.941 -46.4976 -169.949
LeftHand  -0.25398 0.0180481 5.50724
RightShoulder  2.57202 3.3068 31.7973
RightArm  -8.75323 -16.0779 43.9385
RightForeArm  -176.3 55.7605 166.395
RightHand  -0.0268418 -5.20476 9.75793
LeftUpLeg  -5.71632 4.63757 2.55789
LeftLeg  4.87427 9.22049 -3.07089
LeftFoot  1.74241 0.174198 -1.61353
LeftToes  1.06247e-005 4.65869e-005 -8.65511e-006
570
root  12.6956 40.5835 8.02476 150.841 88.2759 150.654
RightUpLeg  -7.48952 -13.3152 -10.0678
RightLeg  12.1536 -6.56237 0.214483
RightFoot  -0.778606 -0.118917 1.11056
RightToes  0.000481921 0.542163 -0.142578
Spine  15.4643 1.28154 5.04516
Spine1  -5.16646 2.9836 -7.66939
HEad  15.4279 -3.48536 3.91931
LeftShoulder1  4.39796 -6.1558 -39.2491
LeftArm  -13.7514 42.0366 -37.6522
LeftForeArm  -179.986 -45.4446 -170.31
LeftHand  -0.25398 0.0180481 5.50724
RightShoulder  2.45994 3.20098 30.7139
RightArm  -6.66852 -9.26073 42.7137
RightForeArm  -172.024 58.1804 165.469
RightHand  -0.0645594 -5.56259 11.6822
LeftUpLeg  -3.3375 5.61621 2.63351
LeftLeg  4.25496 17.1047 -3.93839
LeftFoot  0.554184 0.192369 -1.88891
LeftToes  1.06247e-005 4.65869e-005 -8.65511e-006
571
root  12.8191 40.5756 7.74083 36.3 82.3122 36.1437
RightUpLeg  -9.01407 -10.8241 -9.72569
RightLeg  11.6847 -1.74726 0.424791
RightFoot  0.00670953 -0.123424 1.19208
RightToes  0.000481921 0.542163 -0.142578
Spine  14.733 2.57226 10.1556
Spine1  -4.48597 5.85394 -14.405
HEad  15.9107 -2.01615 3.90604
LeftShoulder1  4.44148 -6.41813 -38.5244
LeftArm  -15.8377 43.559 -36.6093
LeftForeArm  179.354 -45.0824 -170.386
LeftHand  -0.25398 0.0180481 5.50724
RightShoulder  2.58624 3.5291 30.8041
RightArm  -4.89906 -1.93737 41.5778
RightForeArm  179.878 60.1549 163.587
RightHand  -0.081077 -5.7507 5.91272
LeftUpLeg  -1.87199 6.37091 2.5903
LeftLeg  4.03921 23.6449 -4.37799
LeftFoot  -0.49467 0.204908 -2.17155
LeftToes  1.06247e-005 4.65869e-005 -8.65511e-006
572
root  12.921 40.5668 7.51588 14.4703 77.4831 14.3985
RightUpLeg  -9.82533 -8.8979 -9.14159
RightLeg  10.9834 1.61583 0.624597
RightFoot  0.870342 -0.12795 1.2603
RightToes  0.000481921 0.542163 -0.142578
Spine  14.4201 2.82521 12.977
Spine1  -3.9698 6.84686 -17.0593
HEad  15.963 1.55005 2.66744
LeftShoulder1  4.46756 -6.50875 -38.3925
LeftArm  -18.2159 44.2244 -35.0974
LeftForeArm  178.236 -44.2944 -170.569
LeftHand  -0.25398 0.0180481 5.50724
RightShoulder  2.7195 4.0907 29.8334
RightArm  -2.24988 5.44084 42.8829
RightForeArm  170.695 63.1238 160.601
RightHand  -0.0246244 -4.65133 0.214839
LeftUpLeg  -1.14473 6.84568 2.66232
LeftLeg  4.60447 28.4508 -4.08365
LeftFoot  -1.31021 0.204136 -2.26078
LeftToes  1.06247e-005 4.65869e-005 -8.65511e-006
573
root  13.0122 40.5692 7.38788 10.6382 73.9371 10.8419
RightUpLeg  -9.99162 -7.60382 -8.6516
RightLeg  10.3718 3.89423 0.671846
RightFoot  1.52987 -0.127636 1.24206
RightToes  0.000481921 0.542163 -0.142578
Spine  14.157 2.37726 13.3317
Spine1  -3.58147 6.38556 -16.6468
HEad  15.8798 5.92784 1.15001
LeftShoulder1  4.83837 -7.16271 -39.0924
LeftArm  -19.7741 43.7068 -32.5546
LeftForeArm  177.45 -42.7028 -171.021
LeftHand  -0.25398 0.0180481 5.50724
RightShoulder  2.68665 4.36234 28.1346
RightArm  0.197398 10.414 46.5754
RightForeArm  170.452 65.8677 158.212
RightHand  -0.0300019 -3.99308 -0.0598151
LeftUpLeg  -0.439508 7.17462 2.77111
LeftLeg  5.06185 31.6469 -3.76337
LeftFoot  -1.69894 0.1973 -2.21268
LeftToes  1.06247e-005 4.65869e-005 -8.65511e-006
574
root  13.1011 40.5885 7.36657 9.36371 72.4292 9.91974
RightUpLeg  -9.60079 -7.19831 -8.50804
RightLeg  9.90405 4.99573 0.682124
RightFoot  1.80517 -0.125042 1.1957
RightToes  0.000481921 0.542163 -0.142578
Spine  13.3906 1.50044 12.2129
Spine1  -2.92439 5.0593 -14.6625
HEad  15.9075 9.80842 0.00425833
LeftShoulder1  5.64733 -8.59871 -40.3593
LeftArm  -19.8228 40.4978 -29.3224
LeftForeArm  175.786 -41.7835 -171.201
LeftHand  -0.25398 0.0180481 5.50724
RightShoulder  2.72305 4.45652 28.1859
RightArm  1.78638 11.2222 49.6636
RightForeArm  174.395 66.4058 158.095
RightHand  -0.0141409 -4.05296 1.42101
LeftUpLeg  0.439906 7.3337 2.85027
LeftLeg  4.6852 32.9481 -3.97734
LeftFoot  -1.64228 0.192622 -2.13578
LeftToes  1.06247e-005 4.65869e-005 -8.65511e-006
575
root  13.1476 40.6161 7.41872 9.14746 73.168 10.0538
RightUpLeg  -8.69012 -7.65756 -8.60687
RightLeg  9.44623 4.70512 0.814301
RightFoot  1.81251 -0.121165 1.15673
RightToes  0.000481921 0.542163 -0.142578
Spine  12.2901 0.0698981 9.52456
Spine1  -2.13956 2.6477 -10.5981
HEad  16.4366 13.5902 -1.05126
LeftShoulder1  6.2714 -9.83768 -40.7159
LeftArm  -20.0879 33.8713 -27.7344
LeftForeArm  173.085 -43.343 -170.554
LeftHand  -0.25398 0.0180481 5.50724
RightShoulder  2.99815 4.88495 29.759
RightArm  3.25743 9.24476 51.4836
RightForeArm  174.225 65.4508 158.994
RightHand  -0.0190112 -4.12762 1.15062
LeftUpLeg  1.10955 7.34562 3.0514
LeftLeg  4.02707 32.1509 -4.32448
LeftFoot  -1.34222 0.188769 -2.0558
LeftToes  1.06247e-005 4.65869e-005 -8.65511e-006
576
root  13.111 40.6406 7.51187 9.78149 75.7199 11.0167
RightUpLeg  -7.48838 -8.65182 -8.88896
RightLeg  9.05901 3.14245 1.12877
RightFoot  1.67921 -0.110608 1.06907
RightToes  0.000481921 0.542163 -0.142578
Spine  11.7392 -1.97338 4.39432
Spine1  -1.97103 -1.13673 -3.3638
HEad  17.3104 18.0203 -2.58389
LeftShoulder1  6.07505 -9.95154 -38.9215
LeftArm  -21.1822 23.7055 -28.06
LeftForeArm  172.142 -47.6083 -169.157
LeftHand  -0.25398 0.0180481 5.50724
RightShoulder  3.20947 5.41393 30.03
RightArm  5.21934 6.74966 54.1123
RightForeArm  172.031 65.2136 158.974
RightHand  -0.0245768 -3.80678 0.25086
LeftUpLeg  1.20416 7.23709 3.34185
LeftLeg  3.80218 29.679 -4.34447
LeftFoot  -0.918812 0.175231 -1.86237
LeftToes  1.06247e-005 4.65869e-005 -8.65511e-006
577
root  12.983 40.6538 7.64128 12.2457 79.6004 13.8367
RightUpLeg  -6.22663 -9.89651 -9.40699
RightLeg  9.00275 0.525734 1.49102
RightFoot  1.36451 -0.0962326 0.947419
RightToes  0.000481921 0.542163 -0.142578
Spine  12.3279 -4.19634 -2.56344
Spine1  -2.58624 -5.55875 6.06574
HEad  17.8257 22.2064 -4.55111
LeftShoulder1  5.29934 -9.25311 -35.4342
LeftArm  -21.985 9.6471 -27.6508
LeftForeArm  169.952 -56.7146 -165.218
LeftHand  -0.25398 0.0180481 5.50724
RightShoulder  3.02869 5.32351 28.2853
RightArm  7.3453 4.77883 57.0395
RightForeArm  172.381 65.8867 158.382
RightHand  -0.0251466 -3.16635 -0.092097
LeftUpLeg  0.739552 6.98193 3.51777
LeftLeg  4.0407 26.0662 -4.11967
LeftFoot  -0.370313 0.14674 -1.50595
LeftToes  1.06247e-005 4.65869e-005 -8.65511e-006
578
root  12.7441 40.6421 7.80759 28.9551 84.5057 31.0711
RightUpLeg  -4.92166 -11.149 -9.95082
RightLeg  9.44424 -3.14742 1.61333
RightFoot  0.871983 -0.0927398 0.922518
RightToes  0.000481921 0.542163 -0.142578
Spine  14.0037 -5.88846 -9.49125
Spine1  -3.44145 -9.42386 15.3942
HEad  17.9574 24.3039 -6.0833
LeftShoulder1  4.73915 -9.26714 -31.0806
LeftArm  -23.0388 -8.55551 -25.2438
LeftForeArm  134.764 -73.8972 -132.973
LeftHand  -0.25398 0.0180481 5.50724
RightShoulder  2.61268 4.51742 26.5096
RightArm  9.38313 4.2573 57.2772
RightForeArm  171.36 66.2202 157.944
RightHand  -0.04041 -2.5825 -0.864326
LeftUpLeg  -0.174368 6.82758 3.6291
LeftLeg  4.80221 21.253 -3.70548
LeftFoot  0.210382 0.117665 -1.17545
LeftToes  1.06247e-005 4.65869e-005 -8.65511e-006
579
root  12.3813 40.594 7.98198 93.7905 87.5465 96.3777
RightUpLeg  -3.93874 -12.4126 -10.1808
RightLeg  10.311 -7.45222 1.38187
RightFoot  0.383317 -0.103772 1.0359
RightToes  0.000481921 0.542163 -0.142578
Spine  16.7272 -6.75032 -15.576
Spine1  -4.79954 -12.3271 23.9936
HEad  18.4818 24.2539 -6.39096
LeftShoulder1  4.50073 -11.0512 -24.8144
LeftArm  -24.4778 -28.6499 -22.3316
LeftForeArm  18.4198 -63.207 -22.5164
LeftHand  -0.25398 0.0180481 5.50724
RightShoulder  2.30346 3.73635 25.7177
RightArm  11.2875 6.12535 54.6637
RightForeArm  165.938 66.1984 157.355
RightHand  -0.0750916 -2.18126 -2.16837
LeftUpLeg  -1.83904 7.17042 3.66896
LeftLeg  6.23157 15.2864 -2.97967
LeftFoot  0.710959 0.104256 -1.02792
LeftToes  1.06247e-005 4.65869e-005 -8.65511e-006
